<svg xmlns="http://www.w3.org/2000/svg" version="1.1" xmlns:xlink="http://www.w3.org/1999/xlink" xmlns:svgjs="http://svgjs.dev/svgjs" width="1440" height="560" preserveAspectRatio="none" viewBox="0 0 1440 560"><g mask="url(&quot;#SvgjsMask1041&quot;)" fill="none"><rect width="1440" height="560" x="0" y="0" fill="url(&quot;#SvgjsLinearGradient1042&quot;)"></rect><circle r="7.185" cx="707.375" cy="282.685" filter="url(#SvgjsFilter1043)" fill="rgba(51, 121, 194, 0.58)"></circle><circle r="6.715" cx="801.2850000000001" cy="512.955" filter="url(#SvgjsFilter1043)" fill="rgba(51, 121, 194, 0.58)"></circle><circle r="5.795" cx="1165.085" cy="475.08500000000004" filter="url(#SvgjsFilter1043)" fill="rgba(51, 121, 194, 0.58)"></circle><circle r="8.4" cx="1044.92" cy="389.34999999999997" filter="url(#SvgjsFilter1043)" fill="rgba(51, 121, 194, 0.58)"></circle><circle r="7.255" cx="799.025" cy="284.145" filter="url(#SvgjsFilter1043)" fill="rgba(51, 121, 194, 0.58)"></circle><circle r="6.105" cx="900.385" cy="66.755" filter="url(#SvgjsFilter1043)" fill="rgba(51, 121, 194, 0.58)"></circle><circle r="7.015" cx="1408.315" cy="248.545" filter="url(#SvgjsFilter1043)" fill="rgba(51, 121, 194, 0.58)"></circle><circle r="9.325" cx="49.935" cy="93.375" filter="url(#SvgjsFilter1043)" fill="rgba(51, 121, 194, 0.58)"></circle><circle r="9.245" cx="972.345" cy="105.125" filter="url(#SvgjsFilter1043)" fill="rgba(51, 121, 194, 0.58)"></circle><circle r="4.85" cx="793.69" cy="335.40000000000003" filter="url(#SvgjsFilter1043)" fill="rgba(51, 121, 194, 0.58)"></circle><circle r="5.51" cx="213.04" cy="118.81" filter="url(#SvgjsFilter1043)" fill="rgba(51, 121, 194, 0.58)"></circle><circle r="5.875" cx="35.585" cy="217.965" filter="url(#SvgjsFilter1043)" fill="rgba(51, 121, 194, 0.58)"></circle><circle r="7.72" cx="246.85" cy="532.2" filter="url(#SvgjsFilter1043)" fill="rgba(51, 121, 194, 0.58)"></circle><circle r="6.985" cx="318.495" cy="141.925" filter="url(#SvgjsFilter1043)" fill="rgba(51, 121, 194, 0.58)"></circle><circle r="6.44" cx="1208.1200000000001" cy="483" filter="url(#SvgjsFilter1043)" fill="rgba(51, 121, 194, 0.58)"></circle><circle r="7.095" cx="18.015" cy="99.395" filter="url(#SvgjsFilter1043)" fill="rgba(51, 121, 194, 0.58)"></circle><circle r="5.415" cx="184.61499999999998" cy="414.415" filter="url(#SvgjsFilter1043)" fill="rgba(51, 121, 194, 0.58)"></circle><circle r="7.05" cx="866.38" cy="184.06" filter="url(#SvgjsFilter1043)" fill="rgba(51, 121, 194, 0.58)"></circle><circle r="8.15" cx="503.56" cy="380.4" filter="url(#SvgjsFilter1043)" fill="rgba(51, 121, 194, 0.58)"></circle><circle r="8.67" cx="1223.46" cy="334.92" filter="url(#SvgjsFilter1043)" fill="rgba(51, 121, 194, 0.58)"></circle><path d="M743.8 446.7L697.7 420.3 685.6 374.5 731.3 386.9 757.4 433.1C757.4 433.1 757.9 433.6 757.9 433.6 758.8 434.5 760.6 434.5 761.9 434.1 763.8 433.2 764.2 430.9 762.9 429.5L739.9 389.2 762.1 395.1 772.4 412.8C772.4 412.8 772.9 413.3 772.9 413.3 773.8 414.2 775.6 414.2 776.9 413.8 778.7 412.9 779.2 410.6 777.9 409.2L771.1 397 787.4 401.6C788.7 402 791 400.7 791.5 399.3 792.4 397.5 790.6 395.7 789.2 395.2L772.9 390.7 785.2 383.9C787 383 787.4 380.7 786.1 379.4 785.2 377.6 782.9 377.1 781.6 378.5L763.9 388.8 742.2 382.4 782.5 359.5C784.3 358.6 784.8 356.3 783.5 354.9 782.6 353.1 780.3 352.7 778.9 354L732.7 380.1 687 367.8 721.1 333.9 774.5 334.1C776.3 334.1 777.6 332.7 777.6 330.9 777.7 329.1 776.3 327.8 774.5 327.8L727.4 327.6 743.8 311.4 763.7 311.4C765.5 311.4 766.9 310.1 766.9 308.3 766.9 306.5 765.5 305.1 763.7 305.1L750.1 305.1 762.8 292.4C764.6 291.5 764.2 289.3 762.8 287.9 761.5 286.5 759.7 286.5 758.3 287.9L746.5 299.6 746.6 286C746.6 284.2 745.2 282.9 743.4 282.9S740.2 284.2 740.2 286L740.2 305.9 723.8 322.2 724 275.1C724 273.3 722.6 271.9 720.8 271.9 719 271.9 717.6 273.3 717.6 275.1L717.5 328.5 683.9 361.9 671.8 316.1 697.7 271.4C698.6 269.6 697.7 267.8 696.4 266.4 694.6 265.5 692.8 266.4 691.4 267.8L668.2 308 662.4 285.8 672.9 268.2C673.8 266.3 672.9 264.5 671.5 263.2 669.7 262.3 667.9 263.2 667 264.1L660.2 276.3 655.7 260C655.2 258.6 653.4 256.8 651.6 257.7 649.8 258.6 648.4 259.9 649.3 261.7L653.8 278.1 641.6 271.2C639.8 270.3 638 271.2 637.1 272.1 636.6 273.5 636.6 275.3 637.5 276.2 637.5 276.2 638 276.6 638 276.6L655.6 287.1 661.4 309.3 621.2 286.1C619.4 285.2 617.6 286.1 616.7 287 616.2 288.3 616.2 290.2 617.1 291.1 617.1 291.1 617.6 291.5 617.6 291.5L663.6 317.9 675.7 363.7 630.1 351.3 604 305C603.1 303.2 600.8 302.8 599.4 304.1 597.6 305 597.2 307.3 598.5 308.7L621.5 349 599.3 343 589 325.4C588.1 323.6 585.8 323.1 584.4 324.4 582.6 325.3 582.2 327.6 583.5 329L590.3 341.2 574 336.6C572.6 336.2 570.4 337.5 569.9 338.9 569.4 340.2 569.9 341.6 570.8 342.5 571.2 343 571.7 343.4 572.6 343.4L588.9 348 576.6 354.7C574.8 355.6 574.4 357.9 575.7 359.3 575.7 359.3 576.2 359.7 576.2 359.7 577.1 360.6 578.9 360.6 580.2 360.2L597.9 349.8 620.1 355.8 579.7 378.7C577.9 379.6 577.5 381.9 578.8 383.3 578.8 383.3 579.3 383.7 579.3 383.7 580.2 384.6 582 384.6 583.3 384.2L629.6 358.1 675.2 370.4 641.7 403.8 588.3 403.7C586.4 403.6 585.1 405 585.1 406.8 585.1 408.6 586.4 410 588.2 410L634.8 410.6 618.5 426.8 598.6 426.8C596.8 426.8 595.4 428.1 595.4 429.9S596.8 433.1 598.6 433.1L612.1 433.1 600.3 444.9C599 446.2 599 448 600.3 449.4 601.7 450.8 603.5 450.8 604.9 449.4L616.7 437.7 616.6 451.3C616.6 452.2 616.6 453.1 617.5 454S619.3 454.9 620.2 454.9C622 454.9 623.4 453.5 623.4 451.7L623.5 431.8 639.8 415.6 639.7 462.6C639.7 463.6 639.7 464.5 640.6 465.4 641 465.8 642.4 466.3 643.3 466.3 645.1 466.3 646.4 464.9 646.4 463.1L646.6 409.7 680.2 376.3 692.3 422.1 665.9 468.2C665.4 469.5 665.4 471.3 666.3 472.2 666.3 472.2 666.8 472.7 666.8 472.7 668.6 473.6 670.4 472.7 671.3 471.8L694.5 431.6 700.3 453.8 689.9 471.4C689.4 472.8 689.4 474.6 690.3 475.5 690.3 475.5 690.8 475.9 690.8 475.9 692.6 476.8 694.4 475.9 695.3 475L702.1 462.8 706.6 479.1C707 479.6 707 480.5 707.5 481 708.4 481.9 709.7 482.3 711.1 481.9 712.9 481 714.3 479.6 713.4 477.8L708.9 461.5 721.1 468.3C722.9 469.2 724.7 468.3 725.6 467.4 726.5 465.6 725.6 463.8 724.7 462.9L707.1 452.5 701.3 430.3 741.5 453.5C743.3 454.4 745.1 453.5 746 452.6 746 449.9 745.6 447.6 743.8 446.7Z" fill="rgba(51, 121, 194, 0.58)"></path><path d="M907.4 405.7L958.6 391.4 999.6 414.8 958.8 438.7 907.5 424.9C907.5 424.9 906.9 424.9 906.9 424.9 905.6 424.9 904.3 426.2 903.7 427.5 903.1 429.4 904.4 431.3 906.3 431.3L951.2 443.2 931.4 454.9 911.5 449.9C911.5 449.9 910.9 449.9 910.9 449.9 909.6 449.9 908.3 451.2 907.7 452.4 907 454.4 908.3 456.3 910.3 456.3L923.7 460 909 468.4C907.8 469.1 907.1 471.6 907.8 472.9 908.4 474.8 911 474.8 912.3 474.2L926.9 465.8 923.2 479.2C922.5 481.2 923.8 483.1 925.8 483.1 927.7 483.7 929.6 482.4 929.6 480.5L934.6 460.6 954.4 449.6 942.5 494.5C941.8 496.4 943.1 498.3 945 498.3 947 498.9 948.9 497.7 948.9 495.7L962.7 444.5 1003.5 420.6 1003.8 468.6 966.2 506.5C964.9 507.8 964.9 509.7 966.2 511 967.5 512.3 969.4 512.3 970.7 511L1003.8 477.5 1003.9 500.6 989.9 514.7C988.7 516 988.7 517.9 989.9 519.2 991.2 520.5 993.2 520.5 994.4 519.2L1004 509.5 1004.1 527.4C1003.4 529.4 1005.4 530.6 1007.3 530.6 1009.2 530.6 1010.5 529.3 1010.5 527.4L1010.4 510.8 1020 520.3C1021.3 521.6 1023.2 521.6 1024.5 520.3S1025.8 517.1 1024.5 515.8L1010.3 501.8 1010.2 478.8 1043.7 511.9C1045 513.2 1046.9 513.1 1048.2 511.9 1049.4 510.6 1049.4 508.7 1048.1 507.4L1010.2 469.8 1009.9 422.5 1051 445.9 1064.7 495.8C1065.4 497.7 1067.3 498.3 1069.2 498.3 1071.1 497.7 1071.7 495.7 1071.7 493.8L1059.3 449.1 1079.2 460.5 1084.5 480.3C1085.1 482.2 1087 482.9 1089 482.8 1090.9 482.2 1091.5 480.3 1091.5 479L1087.6 465.6 1102.4 473.8C1103.6 474.4 1106.2 474.4 1106.8 472.5 1107.5 470.6 1107.4 468.7 1105.5 468L1090.8 459.8 1104.2 455.9C1106.1 455.2 1106.7 453.3 1106.7 452 1106.1 450.8 1104.8 449.5 1103.5 449.5 1103.5 449.5 1102.9 449.5 1102.9 449.5L1083.1 454.7 1063.2 443.3 1107.9 430.9C1109.8 430.3 1110.4 428.3 1110.4 427.1 1109.8 425.8 1108.5 424.5 1107.2 424.5 1107.2 424.5 1106.6 424.5 1106.6 424.5L1055.4 438.9 1014.4 415.4 1055.2 391.5 1106.5 405.3C1108.4 405.9 1110.3 404.7 1110.3 402.7 1110.9 400.8 1109.6 398.9 1107.7 398.9L1062.9 387 1082.6 375.4 1102.5 380.4C1104.4 381 1106.3 379.7 1106.3 377.8 1107 375.9 1105.7 374 1103.7 374L1090.3 370.2 1105 361.8C1106.2 361.2 1106.9 358.6 1106.2 357.3 1105.6 356 1104.3 355.4 1103 355.4 1102.4 355.4 1101.7 355.4 1101.1 356.1L1086.4 364.5 1090.2 351C1090.8 349.1 1089.5 347.2 1087.6 347.2 1087.6 347.2 1087 347.2 1087 347.2 1085.7 347.2 1084.4 348.5 1083.8 349.8L1078.8 369.6 1059 381.2 1070.9 336.4C1071.5 334.5 1070.3 332.5 1068.3 332.6 1068.3 332.6 1067.7 332.6 1067.7 332.6 1066.4 332.6 1065.1 333.8 1064.5 335.1L1050.7 386.4 1009.9 410.3 1009.6 362.9 1047.2 325C1048.4 323.7 1048.4 321.8 1047.1 320.5 1045.9 319.2 1043.9 319.2 1042.7 320.5L1009.6 353.3 1009.4 330.3 1023.4 316.1C1024.7 314.9 1024.7 312.9 1023.4 311.7S1020.2 310.4 1018.9 311.7L1009.4 321.3 1009.3 304.7C1009.3 302.8 1008 301.5 1006.1 301.5 1004.2 301.5 1002.9 302.8 1002.9 304.7L1003 321.4 993.3 311.8C992.7 311.2 992.1 310.5 990.8 310.6S988.9 311.2 988.2 311.8C986.9 313.1 987 315.1 988.2 316.3L1002.4 330.3 1002.5 353.4 969.1 320.3C968.4 319.6 967.8 319 966.5 319 965.9 319 964.6 319.7 963.9 320.3 962.7 321.6 962.7 323.5 964 324.8L1001.9 362.3 1002.2 409.7 961.1 386.2 946.7 335.1C946.1 333.8 944.8 332.6 943.5 332.6 943.5 332.6 942.9 332.6 942.9 332.6 941 333.2 940.3 335.1 940.4 336.4L952.7 381.2 932.8 369.7 927.6 349.9C927 348.7 925.7 347.4 924.4 347.4 924.4 347.4 923.8 347.4 923.8 347.4 921.9 348 921.2 350 921.2 351.2L925.1 364.7 910.4 356.4C909.7 356.4 909.1 355.8 908.5 355.8 907.2 355.8 905.9 356.4 905.3 357.7 904.6 359.6 904.6 361.6 906.6 362.2L921.3 370.4 907.9 374.4C906 375 905.4 376.9 905.4 378.2 906 380.1 907.9 380.8 909.2 380.7L929 375.5 948.9 386.9 904.2 399.3C902.3 400 901.7 401.9 901.7 403.2 903.6 405.1 905.5 406.4 907.4 405.7Z" fill="rgba(51, 121, 194, 0.58)"></path><path d="M1343.1 368.4L1352.2 383.4 1340.4 384.1C1339.2 384.1 1337.9 385.3 1337.6 387 1338 388.6 1339.3 389.9 1340.5 389.9L1356.1 389.3 1364.4 403.3 1332.8 404.2C1330.8 404.4 1329.6 405.6 1330 407.1 1329.7 408.9 1330.9 410.2 1332.9 410L1367.8 408.9 1375.7 421.4 1359.6 451.5 1346.5 452.2 1327.4 420.3C1326.9 420.1 1326.4 419.8 1325.9 419.5 1325.4 419.3 1324.2 419.2 1323.4 419.5 1321.6 420.4 1321.3 422.2 1322.5 423.5L1340 452.5 1324 452.8 1314.6 438.3C1314.9 437.8 1314.4 437.5 1313.9 437.2 1312.9 436.7 1311.6 436.7 1310.6 437.4 1309.6 438.1 1309.3 439.9 1309.8 441.4L1317.5 453.1 1297.4 453.8C1296.1 453.8 1294.9 455 1294.6 456.8 1295 458.3 1296.2 459.6 1297.5 459.6L1316.3 458.9 1310.7 469.2C1310 470.7 1310.9 472.5 1311.9 473 1313.4 473.8 1315.4 473.6 1316.2 472.1L1323.3 458.8 1339.4 458.5 1324.6 486.1C1323.8 487.6 1324.2 489.1 1325.7 489.9 1327.2 490.7 1328.7 490.3 1329.5 488.8L1345.9 458.2 1359.7 457.3 1377.7 486.6 1371.6 498 1336 499.2C1334.2 498.9 1332.7 500.7 1333.1 502.2 1332.8 503.9 1334.3 504.7 1336.1 505L1368.4 503.9 1360.7 518.2 1344.7 518.5C1343.4 518.5 1341.9 520.2 1341.9 521.5S1343.5 524.3 1345.3 524.6L1357.6 524.1 1348.3 541.4C1347.5 542.9 1348.5 544.7 1350 545.5 1350.9 546 1353 545.8 1353.7 544.3L1363 527.1 1370 537.8C1370.7 538.8 1372.2 539.6 1373.9 538.6 1375 537.9 1375.5 535.7 1374.8 534.6L1366.2 521.1 1373.8 506.8 1390.9 534.3C1392.1 535.6 1393.6 536.4 1395.3 535.5 1396.4 534.7 1396.9 532.5 1396.2 531.5L1377 500.9 1383.1 489.5 1417.4 488.2 1424.4 500.2 1408 530.8C1407.2 532.3 1407.7 533.8 1409.1 534.6 1410.6 535.4 1412.6 535.2 1413.4 533.7L1428.2 506.1 1436.9 519.6 1429.7 532.9C1428.9 534.4 1429.4 535.9 1430.9 536.7 1432.4 537.5 1433.9 537 1434.7 535.6L1440.2 525.2 1450 541.3C1450.8 542.3 1453 542.8 1454 542.1 1455.3 540.9 1456.1 539.4 1454.9 538.1L1444.8 521.3 1458.4 520.9C1459.9 520.5 1461.2 519.3 1461.2 518 1461.2 516.8 1460.5 515.7 1459.5 515.2 1459.5 515.2 1459 514.9 1458.3 515.2L1441 515.4 1432.3 501.9 1466.2 500.4C1468 500.7 1469.2 499.4 1469 497.4 1468.8 496.7 1468.6 495.9 1467.6 495.4 1467.1 495.1 1466.6 494.9 1466.1 494.6L1429 496.3 1422.3 485.1 1438.4 455 1453.2 454.7 1471.7 484.2C1472.6 486 1474.4 486.3 1475.7 485.1 1477.2 484.6 1477.5 482.9 1476.5 481.1L1459.7 454.3 1476 453.5 1484.2 466.8C1484.9 467.8 1486.7 468.1 1488.2 467.7 1489.5 466.4 1490.2 465 1489 463.7L1483 453.5 1500.6 452.7C1502.4 453 1503.1 451.5 1503.4 449.8 1503.2 449 1502.5 448 1501.5 447.5 1501.5 447.5 1501 447.2 1500.5 447L1481.7 447.7 1488.3 435.3C1488.8 434.4 1488.6 432.3 1487.2 431.5 1485.7 430.8 1483.9 431.7 1483.4 432.7L1475.2 448 1458.9 448.8 1475 418.7C1475.8 417.2 1474.8 415.4 1473.4 414.6S1470.4 414.3 1469.6 415.8L1451.9 448.9 1438.3 449.2 1420.3 419.9 1427.2 407.1 1463.3 406.1C1464.8 405.6 1466.1 404.4 1466.4 402.7 1466.2 401.9 1465.5 400.9 1464.5 400.4 1464 400.1 1463.5 399.8 1462.7 400.1L1430.4 401.2 1438.1 386.8 1454.4 386C1455.6 386.1 1456.9 384.9 1457.2 383.1 1456.7 381.6 1455.5 380.3 1454.3 380.3L1441.2 380.9 1449.7 365.1C1450.2 364.1 1449.5 361.9 1448.5 361.3 1447.1 360.5 1444.8 361.2 1444.3 362.2L1435.8 378 1429.6 367.1C1429.1 366.8 1428.6 366.5 1428.1 366.3 1427.1 365.7 1425.9 365.7 1425.1 365.9 1423.8 367.2 1423.5 368.9 1424 370.4L1432.6 383.9 1425 398.2 1407.9 370.7C1407 368.9 1405.2 368.6 1404.2 369.4 1402.4 370.3 1402.1 372.1 1402.6 373.6L1421.8 404.2 1414.9 417 1380.6 418.3 1373.4 406.8 1391.1 373.8C1391.9 372.3 1391.4 370.8 1389.9 370 1388.4 369.2 1386.9 369.6 1386.1 371.1L1370 401.2 1361.6 387.2 1369.8 371.9C1370.4 370.9 1369.7 368.6 1368.2 367.9 1366.7 367.1 1364.9 368 1364.4 369L1357.8 381.3 1348 365.3C1347.5 365 1347.5 365 1347 364.8 1346 364.2 1344.7 364.2 1344 364.4 1342.7 365.6 1342.4 367.4 1343.1 368.4ZM1411.7 422.9L1415.5 423 1417.2 425.8 1431.8 449.5 1433.5 452.4 1431.9 455.3 1418.9 479.5 1417.4 482.5 1414.1 482.6 1386.3 483.6 1383 483.8 1380.8 480.7 1366.7 457.3 1364.5 454.2 1366.1 451.2 1379.1 427 1380.6 424.1 1384.4 424.2 1411.7 422.9Z" fill="rgba(51, 121, 194, 0.58)"></path><path d="M1036.4 164.1L1054.2 144.4 1077.9 143.5 1066.9 164.5 1041.5 172.2C1041.5 172.2 1041.2 172.4 1041.2 172.4 1040.7 172.7 1040.5 173.6 1040.6 174.3 1040.8 175.3 1041.9 175.8 1042.7 175.2L1064.8 168.4 1059.5 178.6 1049.8 181.7C1049.8 181.7 1049.5 181.9 1049.5 181.9 1049 182.2 1048.8 183.1 1048.8 183.8 1049.1 184.8 1050.1 185.3 1051 184.8L1057.7 182.8 1053.7 190.2C1053.3 190.9 1053.7 192.1 1054.3 192.5 1055.1 193.1 1056.2 192.4 1056.6 191.8L1060.6 184.4 1062.5 191.1C1062.8 192.1 1063.8 192.5 1064.6 192 1065.6 191.8 1066.1 190.7 1065.6 189.9L1062.4 180.2 1067.9 170.3 1074.7 192.4C1075 193.4 1076 193.9 1076.8 193.4 1077.8 193.1 1078.3 192.1 1077.8 191.3L1070.1 165.9 1081 144.9 1093.9 165.2 1088 191.3C1087.8 192.1 1088.3 192.9 1089.2 193.1 1090.1 193.3 1090.9 192.8 1091.1 191.9L1096.3 169 1102.4 178.7 1100.2 188.4C1100 189.3 1100.5 190.1 1101.4 190.3 1102.3 190.5 1103.1 190 1103.3 189.1L1104.8 182.5 1109.6 190.1C1109.8 191.1 1111 191.1 1111.8 190.6 1112.6 190.1 1112.8 189.2 1112.3 188.4L1107.9 181.3 1114.5 182.8C1115.4 183 1116.2 182.5 1116.4 181.6S1116.1 179.9 1115.2 179.7L1105.5 177.6 1099.3 167.8 1122.3 173C1123.1 173.2 1124 172.7 1124.2 171.8 1124.4 170.9 1123.8 170.1 1123 169.9L1096.9 164 1084.3 144 1107.9 143.1 1126.9 160.6C1127.7 161.2 1128.7 161 1129.5 160.5 1130.1 159.7 1129.9 158.7 1129.4 157.9L1112.3 142.2 1123.7 141.8 1131.2 148.8C1132 149.4 1133 149.2 1133.8 148.7 1134.4 147.9 1134.2 146.9 1133.8 146.4L1128.6 141.7 1137.1 141.3C1137.8 141.2 1138.9 140.6 1138.6 139.6 1138.4 138.6 1137.9 137.8 1136.9 138L1128.4 138.4 1133.1 133.2C1133.7 132.4 1133.5 131.5 1133.1 130.9 1132.5 130.5 1131.6 130.3 1131.1 130.7 1131.1 130.7 1130.8 130.9 1130.8 130.9L1123.8 138.3 1112.4 138.8 1128 121.6C1128.7 120.9 1128.4 119.9 1128.1 119.3 1127.5 119 1126.6 118.8 1126.1 119.1 1126.1 119.1 1125.8 119.3 1125.8 119.3L1107.9 138.9 1084.3 139.8 1095.3 118.9 1120.7 111.2C1121.6 110.9 1122.1 109.9 1121.6 109.1 1121.4 108.1 1120.3 107.6 1119.5 108.1L1097.3 115 1102.6 104.8 1112.4 101.6C1113.3 101.4 1113.8 100.3 1113.3 99.5 1113.1 98.6 1112 98.1 1111.2 98.6L1104.5 100.6 1108.5 93.1C1108.9 92.5 1108.4 91.3 1107.8 90.9 1107.2 90.5 1106.5 90.6 1106 90.9 1105.7 91.1 1105.4 91.3 1105.3 91.7L1101.3 99.2 1099.4 92.5C1099.1 91.5 1098.1 91 1097.3 91.5 1097.3 91.5 1097 91.7 1097 91.7 1096.4 92 1096.2 92.9 1096.3 93.6L1099.4 103.4 1094.1 113.5 1087.3 91.4C1087.1 90.4 1086 89.9 1085.2 90.4 1085.2 90.4 1084.9 90.6 1084.9 90.6 1084.4 90.9 1084.2 91.8 1084.3 92.5L1092 117.9 1081 138.9 1068.4 118.9 1074.2 92.8C1074.4 91.9 1073.9 91.1 1073 90.9 1072.1 90.7 1071.3 91.2 1071.1 92.1L1065.8 114.8 1059.6 105.1 1061.8 95.4C1062 94.5 1061.5 93.7 1060.6 93.5S1058.9 93.8 1058.7 94.7L1057.2 101.3 1052.8 94.3C1052.3 93.4 1051.4 93.2 1050.6 93.8 1049.8 94.3 1049.6 95.2 1050.1 96L1054.5 103 1047.9 101.5C1047.5 101.4 1047 101.3 1046.5 101.6S1045.9 102.4 1045.8 102.9C1045.6 103.8 1046.1 104.6 1046.9 104.8L1056.7 107 1062.8 116.7 1039.9 111.5C1039.4 111.4 1039 111.3 1038.4 111.7 1038.2 111.8 1037.8 112.4 1037.7 112.9 1037.5 113.8 1038 114.6 1038.9 114.8L1064.9 120.6 1077.6 140.7 1054 141.6 1034.3 123.7C1033.7 123.4 1032.8 123.2 1032.3 123.5 1032.3 123.5 1032 123.7 1032 123.7 1031.4 124.4 1031.6 125.4 1032 126L1049.1 141.7 1037.6 142.1 1030.1 135.1C1029.5 134.7 1028.6 134.5 1028.1 134.8 1028.1 134.8 1027.8 135 1027.8 135 1027.2 135.8 1027.4 136.8 1027.8 137.3L1033 142 1024.6 142.4C1024.3 142.6 1023.8 142.5 1023.6 142.6 1023 143 1022.7 143.6 1022.7 144.3 1023 145.3 1023.5 146.1 1024.5 145.9L1032.9 145.4 1028.3 150.7C1027.6 151.4 1027.9 152.4 1028.2 153 1029 153.6 1030 153.4 1030.5 153L1037.5 145.5 1049 145.1 1033.3 162.2C1032.7 163 1032.9 164 1033.2 164.5 1034.6 164.8 1035.7 164.9 1036.4 164.1Z" fill="rgba(51, 121, 194, 0.58)"></path><path d="M434.7 414.2L382.3 422.4 344.2 394.3 387.6 375.4 436.9 395.1C436.9 395.1 437.5 395.2 437.5 395.2 438.8 395.3 440.2 394.2 441 393 441.9 391.2 440.8 389.1 438.9 388.9L395.7 371.8 416.8 362.6 435.9 369.9C435.9 369.9 436.5 370 436.5 370 437.8 370.1 439.2 369 440 367.8 440.9 365.9 439.8 363.9 437.9 363.7L425 358.3 440.5 351.7C441.9 351.2 442.8 348.8 442.3 347.4 441.9 345.4 439.3 345.2 438 345.6L422.4 352.3 427.8 339.3C428.6 337.5 427.6 335.4 425.6 335.2 423.8 334.4 421.8 335.4 421.5 337.3L414.2 356.5 393.3 365.1 410.4 321.9C411.3 320.1 410.2 318 408.3 317.8 406.5 317 404.4 318 404.2 319.9L384.4 369.2 341.1 388.1 346.5 340.4 388.2 307.2C389.7 306 389.9 304.1 388.8 302.7 387.6 301.3 385.7 301.1 384.3 302.2L347.5 331.5 350.1 308.6 365.7 296.2C367.1 295.1 367.3 293.2 366.2 291.8 365 290.4 363.1 290.1 361.7 291.3L351.1 299.7 353.1 281.9C354 280.1 352.2 278.6 350.3 278.4 348.4 278.2 347 279.3 346.7 281.2L344.9 297.7 336.4 287.1C335.3 285.7 333.4 285.5 332 286.6S330.3 289.7 331.5 291.1L343.9 306.6 341.3 329.5 311.9 292.7C310.8 291.3 308.9 291.1 307.5 292.2 306.1 293.3 305.9 295.3 307 296.7L340.3 338.4 334.9 385.5 296.9 357.4 289.2 306.2C288.7 304.3 286.9 303.4 285 303.2 283 303.6 282.2 305.5 282 307.4L289 353.2 270.6 339.6 267.7 319.3C267.3 317.3 265.5 316.4 263.6 316.2 261.6 316.6 260.7 318.5 260.6 319.8L262.9 333.5 249.2 323.6C248 322.8 245.5 322.6 244.6 324.4 243.7 326.2 243.5 328.1 245.4 329L259.1 338.9 245.3 341.2C243.3 341.6 242.4 343.5 242.3 344.7 242.8 346.1 243.9 347.5 245.2 347.6 245.2 347.6 245.8 347.7 245.8 347.7L266.1 344.9 284.5 358.5 238.6 365.6C236.7 366 235.8 367.8 235.7 369.1 236.2 370.5 237.3 371.9 238.6 372 238.6 372 239.2 372.1 239.2 372.1L291.7 363.9 329.7 392 286.3 410.9 237 391.2C235.2 390.3 233.2 391.4 232.9 393.3 232.1 395.1 233.1 397.2 235 397.4L278.2 414.5 257.2 423.7 238 416.4C236.2 415.5 234.2 416.6 233.9 418.5 233.1 420.3 234.1 422.4 236.1 422.6L249 427.9 233.4 434.5C232.1 435 231.1 437.5 231.6 438.9 232.1 440.2 233.3 441 234.6 441.1 235.2 441.2 235.9 441.3 236.6 440.7L252.1 434.1 246.8 447C246 448.9 247 450.9 248.9 451.1 248.9 451.1 249.6 451.2 249.6 451.2 250.8 451.3 252.3 450.2 253 449L260.4 429.9 281.4 420.7 264.2 463.8C263.4 465.6 264.4 467.7 266.3 467.9 266.3 467.9 267 468 267 468 268.3 468.1 269.7 467 270.5 465.8L290.2 416.5 333.6 397.6 328.2 444.6 286.5 477.9C285.1 479 284.8 481 286 482.4 287.1 483.8 289 484 290.4 482.9L327.2 454.2 324.6 477.1 309 489.5C307.6 490.6 307.4 492.5 308.5 493.9S311.5 495.6 312.9 494.4L323.6 486 321.7 502.5C321.5 504.4 322.6 505.8 324.5 506.1 326.4 506.3 327.8 505.1 328 503.2L329.9 486.7 338.4 497.3C338.9 498 339.5 498.7 340.8 498.9S342.8 498.5 343.5 497.9C344.9 496.8 345.1 494.9 344 493.4L331.6 477.9 334.2 455 363.5 491.8C364 492.5 364.6 493.2 365.9 493.3 366.5 493.4 367.9 492.9 368.6 492.4 370 491.2 370.2 489.3 369.1 487.9L335.8 446.1 341.1 399.1 379.2 427.2 387.4 479.7C387.9 481 389 482.4 390.3 482.6 390.3 482.6 390.9 482.7 390.9 482.7 392.9 482.2 393.8 480.4 393.9 479.1L386.9 433.2 405.3 446.9 408.1 467.2C408.6 468.6 409.7 470 411 470.1 411 470.1 411.7 470.2 411.7 470.2 413.6 469.8 414.5 467.9 414.6 466.7L412.3 452.9 426 462.8C426.7 462.9 427.2 463.6 427.9 463.7 429.1 463.8 430.5 463.3 431.2 462.1 432.1 460.3 432.3 458.4 430.5 457.5L416.8 447.6 430.6 445.3C432.6 444.9 433.4 443 433.6 441.8 433.1 439.8 431.3 438.9 430 438.8L409.7 441.6 391.3 428 437.2 420.9C439.2 420.5 440 418.7 440.2 417.4 438.5 415.3 436.7 413.8 434.7 414.2Z" fill="rgba(51, 121, 194, 0.58)"></path><path d="M1400.1 87.9L1397.7 104.5 1389.5 98.6C1388.7 97.9 1387.2 98 1386 99 1385.5 100.3 1385.6 101.8 1386.9 102.3L1396.9 110 1395.6 123.1 1374.7 106.9C1373.5 106.3 1372 106.5 1371.3 107.3 1370.3 108.7 1370.4 110.2 1371.7 110.7L1394.8 128.6 1392.2 148.5 1375.6 132.5 1375.4 155.5 1359.4 143.5 1362.8 114.5C1363.3 114.3 1363.1 113.8 1362.9 113.4 1362.5 112.5 1361.7 111.8 1360.7 111.7 1359.6 111.7 1358.4 112.7 1357.9 113.9L1354.9 140.2 1344.7 132 1346.2 119.4C1346.4 118.7 1346.2 118.3 1346 117.9 1345.9 117.4 1345 116.7 1344 116.6 1342.9 116.6 1341.8 117.6 1341.7 118.6L1340.2 128.7 1326.6 118.7C1325.6 117.6 1324.3 118.1 1323.2 119.1 1322.5 120 1322.6 121.5 1324 122.4L1337.1 132.5 1327.8 136.4C1326.5 137 1326.2 138.7 1326.5 139.6 1327.1 140.9 1328.3 141.4 1329.7 140.9L1341.6 135.9 1351.8 144.1 1327.9 154.1C1326.6 154.6 1326.1 155.9 1326.7 157.2 1327 158.1 1328.5 159.1 1329.8 158.5L1356.4 147.4 1372.3 159.4 1350.6 165.9 1370.1 177.5 1351.5 185.3 1328.5 167.9C1327.1 166.9 1325.8 167.5 1325.1 168.3 1324.4 169.1 1324.5 170.6 1325.5 171.8L1346.6 187.4 1334.6 192.4 1324.2 184.8C1323.2 183.7 1321.7 183.8 1320.7 185.2 1320 186.1 1320.1 187.6 1321.6 188.5L1329.3 194.6 1313.8 201.1C1312.5 201.7 1312 202.9 1312.6 204.3S1314.4 206.1 1315.7 205.6L1331.2 199.1 1330.1 208.9C1329.8 210.6 1330.8 211.7 1331.9 211.8 1333.6 212.1 1334.7 211.1 1334.6 209.6L1336.5 196.8 1348.5 191.8 1344.8 217.8C1344.9 219.3 1345.9 220.5 1347 220.5 1348.7 220.9 1349.8 219.9 1349.7 218.4L1353.3 189.8 1371.9 182 1366.6 204 1386.5 193 1383.8 212.9 1357.3 224C1356 224.6 1355.6 226.3 1356 227.2 1356.6 228.5 1357.8 229 1359.1 228.4L1383.5 218.2 1381.8 231.5 1369.8 236.5C1368.5 237 1368 238.3 1368.5 239.6 1368.9 240.5 1370.3 241.5 1371.7 240.9L1381 237 1379 253.4C1378.7 255.1 1379.7 256.3 1381.2 256.2 1382.3 256.2 1383.6 255.7 1383.5 254.2L1385.9 237.5 1394.1 243.5C1394.9 244.2 1396.4 244 1397.1 243.2 1397.8 242.4 1397.9 241.3 1397.7 240.9 1397.5 240.5 1397.3 240 1396.7 239.8L1386.7 232 1388 219 1408.8 235.2C1410.1 235.7 1411.6 235.6 1412.3 234.8 1413 234 1413.1 232.9 1412.7 232 1412.5 231.6 1412.5 231.6 1411.9 231.3L1388.8 213.4 1391.4 193.6 1407.9 209.5 1408.2 186.5 1424.2 198.6 1420.7 227.6C1420.7 228.7 1421.2 230 1422.9 230.3 1424 230.4 1425.1 229.4 1425.6 228.1L1428.7 201.9 1438.9 210.1 1437.4 222.7C1436.9 223.9 1437.9 225.1 1439.6 225.4 1440.7 225.5 1441.8 224.5 1442.3 223.2L1443.4 213.4 1456.9 223.3C1457.9 224.5 1459.3 223.9 1460.4 222.9 1460.7 222.3 1460.7 221.2 1460.6 220.8 1460.4 220.3 1460.2 219.9 1459.6 219.6L1446.5 209.5 1455.8 205.6C1457.1 205 1457.4 203.3 1457 202.5L1457 202.5C1456.5 201.1 1455.2 200.6 1453.9 201.2L1441.9 206.2 1431.7 198 1455.6 187.9C1457 187.4 1457.5 186.1 1456.9 184.8S1455.1 183 1453.8 183.5L1427.2 194.7 1411.2 182.6 1433 176.1 1413.5 164.5 1432.1 156.7 1455 174.1C1456.5 175.1 1457.8 174.5 1458.5 173.7 1459.2 172.9 1459.1 171.4 1458.1 170.3L1437.4 154.5 1448.9 149.6 1459.4 157.2C1460.4 158.4 1461.9 158.2 1462.9 156.8 1463.6 156 1463.4 154.5 1462.4 153.3L1454.2 147.4 1469.7 140.9C1471.1 140.4 1471.6 139.1 1471 137.8S1469.2 135.9 1467.9 136.5L1452.4 143 1453.5 133.2C1453.7 132.5 1453.5 132.1 1453.3 131.6 1453 130.8 1452.3 130.5 1451.7 130.2 1450 129.9 1448.9 130.9 1449 132.4L1447.1 145.2 1435.1 150.2 1438.8 124.2C1438.6 123.8 1438.4 123.3 1438.2 122.9 1437.8 122 1437.2 121.8 1436.6 121.5 1434.9 121.2 1433.8 122.2 1433.9 123.7L1430.2 152.3 1411.7 160.1 1417 138.1 1397.1 149 1399.7 129.2 1426.3 118C1427.6 117.5 1427.9 115.8 1427.6 114.9 1427 113.5 1425.8 113 1424.4 113.6L1400.5 123.6 1401.8 110.6 1413.8 105.6C1415.1 105 1415.6 103.8 1415.1 102.4S1413.2 100.6 1411.9 101.1L1402.6 105 1404.6 88.6C1404.8 88 1404.6 87.5 1404.5 87.1 1404.3 86.7 1403.5 86 1402.4 85.9 1401.3 85.8 1400 86.4 1400.1 87.9ZM1409.9 147.3L1405.5 165.3 1421.4 174.7 1403.4 180.2 1403.3 198.5 1389.7 185.9 1373.6 194.8 1378.1 176.8 1362.1 167.3 1379.7 162 1380.3 143.6 1393.4 156.3 1409.9 147.3Z" fill="rgba(51, 121, 194, 0.58)"></path><path d="M369.4 151L376.9 142.7 379.2 149C379.4 149.7 380.3 150.2 381.3 150.1 382.1 149.6 382.6 148.7 382 147.9L379.4 139.9 384.9 133.2 390.5 149.9C391 150.6 391.9 151.1 392.5 151 393.6 150.5 394.1 149.6 393.6 148.9L387.4 130.4 396.2 120.4 399.5 135.4 408.2 122.7 412.5 135.3 399.9 150.1C399.6 150 399.5 150.4 399.4 150.7 399.3 151.3 399.5 152 400.1 152.4 400.6 152.9 401.7 152.7 402.4 152.2L413.8 138.8 416.4 147.1 410.9 153.6C410.6 153.8 410.5 154.1 410.4 154.4 410.4 154.8 410.6 155.4 411.1 155.9 411.7 156.3 412.7 156.2 413.1 155.6L417.7 150.6 421.5 161.2C421.7 162.2 422.6 162.4 423.6 162.2 424.3 162 424.8 161.1 424.3 160.1L420.8 149.6 427.4 150.9C428.4 151.1 429.2 150.3 429.3 149.6 429.5 148.7 429 147.9 428 147.8L419.6 146.1 417 137.8 433.9 141.1C434.9 141.3 435.6 140.8 435.8 139.8 435.9 139.2 435.5 138.1 434.5 137.9L415.7 134.3 411.3 121.7 425.7 126.1 419.3 112.5 432.5 115 438.7 133.2C439.2 134.3 440.1 134.5 440.8 134.3 441.5 134.1 442 133.2 441.8 132.2L435.9 115.7 444.4 117.4 447.4 125.5C447.5 126.5 448.4 127 449.5 126.5 450.2 126.3 450.7 125.4 450.2 124.4L448.2 118.1 459.2 120.3C460.1 120.4 460.9 119.9 461 119S460.7 117.3 459.8 117.1L448.8 115 453 109.9C453.8 109.1 453.7 108.1 453.1 107.7 452.3 106.9 451.3 107 450.8 107.9L445 114.2 436.5 112.6 448.2 99.5C448.7 98.6 448.6 97.6 448 97.2 447.2 96.4 446.2 96.5 445.7 97.4L433.1 111.9 419.9 109.3 431 99.1 415.9 97.8 424.7 87.8 443.6 91.5C444.5 91.6 445.3 90.8 445.5 90.2 445.6 89.3 445.1 88.5 444.2 88.3L426.9 84.9 432.8 78.3 441.3 79.9C442.2 80.1 443 79.6 443.1 78.7 443.3 78 442.8 77 441.9 76.8L435.3 75.5 442.5 67.1C443.3 66.3 443.1 65.3 442.3 64.8 441.7 64.4 440.8 64.2 440.3 65.1L432.8 73.4 430.4 67C430.2 66.4 429.3 65.9 428.7 66.1 428 66.2 427.5 66.8 427.5 67.1 427.4 67.4 427.3 67.8 427.6 68.1L430.3 76.1 424.7 82.9 419.2 66.2C418.7 65.4 417.8 64.9 417.1 65.1 416.4 65.3 416 65.9 415.9 66.5 415.8 66.8 415.8 66.8 416 67.2L422.2 85.7 413.4 95.7 410.1 80.7 401.5 93.4 397.1 80.8 409.8 66C410.2 65.4 410.4 64.4 409.6 63.6 409 63.2 408 63.3 407.2 63.8L395.8 77.3 393.2 68.9 398.7 62.5C399.5 62 399.3 61 398.5 60.2 397.9 59.7 396.9 59.9 396.2 60.4L391.9 65.4 388.1 54.9C388 53.9 387 53.7 386 53.8 385.7 54.1 385.2 54.7 385.2 55 385.1 55.3 385 55.6 385.3 56L388.8 66.4 382.2 65.1C381.3 65 380.5 65.8 380.3 66.4L380.3 66.4C380.1 67.4 380.7 68.1 381.6 68.3L390.1 69.9 392.7 78.3 375.7 75C374.8 74.8 374 75.3 373.9 76.2S374.2 77.9 375.1 78.1L394 81.8 398.4 94.4 383.9 89.9 390.4 103.6 377.2 101 370.9 82.8C370.5 81.8 369.5 81.6 368.9 81.8 368.2 82 367.7 82.9 367.8 83.9L373.4 100.3 365.2 98.7 362.2 90.6C362.1 89.6 361.2 89.1 360.2 89.5 359.5 89.7 359 90.6 359.1 91.6L361.5 97.9 350.5 95.8C349.5 95.6 348.8 96.1 348.6 97.1S348.9 98.8 349.9 98.9L360.9 101.1 356.6 106.1C356.2 106.4 356.2 106.7 356.1 107 356 107.6 356.2 108 356.5 108.4 357.3 109.2 358.3 109.1 358.8 108.2L364.6 101.8 373.1 103.5 361.4 116.5C361.4 116.8 361.3 117.2 361.3 117.5 361.1 118.1 361.4 118.5 361.6 118.8 362.5 119.7 363.5 119.5 364 118.6L376.6 104.1 389.8 106.7 378.6 116.9 393.7 118.2 384.9 128.3 366.1 124.6C365.1 124.4 364.3 125.2 364.2 125.9 364 126.8 364.5 127.6 365.4 127.7L382.4 131 376.9 137.8 368.4 136.1C367.4 135.9 366.7 136.5 366.5 137.4S366.8 139.1 367.8 139.3L374.4 140.6 367.2 148.9C366.8 149.2 366.7 149.5 366.7 149.8 366.6 150.1 366.8 150.8 367.4 151.3 367.9 151.7 368.9 151.9 369.4 151ZM386 114.5L395.1 106.1 389.8 95 401.8 98.6 408.6 88.6 411.5 100.5 423.7 101.6 414.6 109.9 419.9 121.1 408.2 117.5 401 127.5 398.5 115.6 386 114.5Z" fill="rgba(51, 121, 194, 0.58)"></path><path d="M891.5 40.2L887.1 49.3 883.2 43.8C882.8 43.2 881.8 43 880.9 43.4 880.3 44.1 880 45 880.4 45.7L885.5 52.9 881.4 61.3 871.2 46.4C870.5 45.5 869.5 45.3 868.9 46 868 46.4 867.7 47.4 868.4 48.3L879.8 64.7 876.3 72.3 856.8 74 852.5 68 861.7 48.9C861.7 48.5 861.7 48.2 861.7 47.9 861.6 47.6 861.3 47 860.9 46.7 859.9 46.1 859 46.5 858.7 47.5L850.3 64.9 845.1 57.3 849.2 48.3C849.5 48.3 849.5 48 849.4 47.7 849.4 47 849 46.4 848.3 46.2 847.7 45.9 846.7 46.3 846.2 47L842.9 54.3 836.4 44.9C836 44.3 835 44.1 834.1 44.5 833.5 45.2 833.2 46.2 833.6 46.8L839.8 55.6 833.1 56.1C832.2 56.2 831.6 57.2 831.7 57.9 831.8 58.8 832.5 59.7 833.4 59.6L842 58.9 847.2 66.5 829.3 68C828.4 68.1 827.8 68.8 827.9 69.7 828 70.7 828.7 71.3 829.6 71.2L849.4 69.5 854.1 75.8 845.7 93.6 838.3 94.2 826.6 77.6C826.2 76.6 824.9 76.4 824.3 77.1 823.4 77.5 823.5 78.5 823.9 79.4L834.5 94.5 825.3 95.3 820.1 87.7C819.7 87.1 818.4 86.9 817.8 87.3S817 89 817.4 89.9L821.4 95.7 810.3 96.6C809.3 96.7 808.8 97.7 808.8 98.7 808.9 99.3 809.6 100.2 810.6 100.1L821.7 99.2 818.8 105.8C818.5 106.5 818.6 107.5 819.6 108 820.3 108.3 821.5 107.9 821.8 107.2L825.6 98.8 834.8 98.1 826.9 114.8C826.7 115.8 826.8 116.7 827.8 117.3 828.4 117.5 829.7 117.1 829.9 116.5L838.6 97.7 846 97.1 857.3 113.2 853.7 120.2 833.9 121.9C833 122 832.4 122.7 832.5 123.6 832.6 124.6 833.3 125.5 834.2 125.4L852.1 123.9 848.3 132.2 839.7 133C838.8 133 838.2 133.7 838.3 134.7 838.3 135.6 839 136.2 840 136.2L846.7 135.6 842.1 145.3C841.8 146 842.2 147.2 842.9 147.5 843.9 147.7 844.8 147.6 845.1 146.6L850 136.6 854.4 142.9C855.1 143.5 856.1 143.8 856.7 143.4 857.3 143 857.5 142.4 857.5 141.7 857.5 141.7 857.5 141.4 857.1 141.1L851.6 132.9 855.4 124.6 866.7 140.3C867.1 141.2 868.1 141.5 869 140.7 869.3 140.4 869.5 140 869.5 139.4 869.5 139.1 869.4 138.8 869.4 138.5L857 121.2 860.3 114.5 879.7 112.8 884.5 119.8 876.1 137.9C875.5 138.9 875.9 139.8 876.9 140.1 877.6 140.6 878.6 140.2 879.1 139.2L886.7 122.8 892.2 130.4 888.4 138.4C888.1 139.1 888.5 140 889.2 140.6 890.2 140.9 891.1 140.8 891.4 139.8L894.4 133.7 900.2 141.9C900.6 142.8 901.6 142.8 902.5 142.4 902.8 142 903.1 141.4 903 140.7 903 140.7 903 140.4 902.9 140.1L896.7 131.3 904.7 130.6C905.3 130.6 906.2 129.8 906.2 128.9 906.1 127.9 905.1 127.4 904.4 127.4L894.6 128.3 889.1 120.7 908.5 119C909.5 119 910 118 910 117S909.2 115.5 908.2 115.5L886.9 117.4 882.5 111 890.9 93.3 899.2 92.5 910.9 109.5C911.6 110.1 912.6 110.3 913.5 109.9 913.8 109.6 914.1 108.9 914 108.3 914 108 914 107.7 913.6 107.4L903 92.2 912.3 91.4 917.7 99C918.1 99.6 919.1 99.8 920 99.4 920.6 98.7 920.8 97.8 920.5 97.1L916.1 91.1 926.3 90.2C926.9 90.2 927.8 89.1 927.8 88.5 927.7 87.5 926.6 86.7 926 86.7L915.8 87.6 919.1 81.2C919.1 80.9 919.1 80.6 919 80.2 919 79.6 918.6 79 918.3 78.7 917.3 78.5 916.3 78.9 915.8 79.6L912 87.9 902.7 88.7 910.6 72C911.2 71 910.8 70 910.1 69.8 909.1 69.2 908.2 69.6 907.6 70.3L898.9 89 890.6 89.7 879.3 73.7 882.5 66.7 903.9 64.8C904.9 64.8 905.4 64.1 905.4 63.1 905.3 62.2 904.6 61.6 903.6 61.7L884.2 63.3 888.3 54.9 898.2 54.1C898.8 54 899.7 53 899.6 52 899.5 51.1 898.5 50.5 897.9 50.6L889.9 51.3 894.5 41.6C894.5 41.2 894.5 41.2 894.5 40.9 894.4 40.3 894 39.7 893.7 39.4 892.7 39.1 891.8 39.5 891.5 40.2ZM886.8 90.1L887.9 91.9 887.1 93.6 880.3 108 879.5 109.6 877.6 109.8 861.9 111.1 860 111.3 858.9 109.8 849.8 96.8 848.7 95.3 849.5 93.3 856.3 79.2 857.1 77.2 859 77 874.6 75.7 876.6 75.5 877.7 77.4 886.8 90.1Z" fill="rgba(51, 121, 194, 0.58)"></path><path d="M49.1 113.9L79.6 100.8 107 112 83.6 130.1 50.7 125.8C50.7 125.8 50.3 125.8 50.3 125.8 49.5 125.9 48.8 126.8 48.5 127.7 48.3 128.9 49.3 130 50.5 129.8L79.2 133.6 67.9 142.4 55.2 140.9C55.2 140.9 54.8 140.9 54.8 140.9 54 141.1 53.3 142 53 142.8 52.8 144 53.8 145.1 54.9 145L63.6 146.2 55.2 152.6C54.4 153.1 54.3 154.7 54.8 155.5 55.3 156.6 56.9 156.4 57.6 155.9L66.1 149.5 64.8 158.1C64.6 159.4 65.5 160.5 66.7 160.3 68 160.5 69.1 159.6 68.9 158.4L70.4 145.7 81.7 137.3 78 166C77.8 167.3 78.7 168.4 79.9 168.2 81.2 168.4 82.2 167.5 82.1 166.3L86.5 133.4 109.8 115.3 113.9 145 93.7 171.6C93 172.5 93.2 173.7 94.1 174.3 95 175 96.2 174.9 96.9 174L114.6 150.5 116.6 164.8 109.1 174.7C108.4 175.6 108.5 176.8 109.4 177.5 110.3 178.2 111.5 178 112.2 177.1L117.4 170.3 118.9 181.4C118.6 182.7 119.9 183.3 121.1 183.2 122.3 183 123 182.1 122.8 180.9L121.4 170.6 128.2 175.7C129.1 176.4 130.3 176.3 131 175.4S131.5 173.3 130.6 172.6L120.7 165.1 118.7 150.8 142.1 168.6C143 169.3 144.2 169.1 144.9 168.2 145.6 167.3 145.4 166.1 144.5 165.4L118 145.2 114 115.9 141.3 127.1 153.9 156.9C154.4 158 155.7 158.3 156.9 158.1 158 157.5 158.2 156.3 158.1 155.1L146.7 128.4 160 133.8 164.9 145.7C165.4 146.8 166.7 147.1 167.8 146.9 169 146.3 169.2 145.1 169.1 144.3L165.6 136.3 175.4 140.2C176.3 140.5 177.8 140.3 178.1 139 178.3 137.8 178.1 136.6 176.9 136.4L167.1 132.5 175.1 129C176.2 128.4 176.5 127.2 176.3 126.4 175.8 125.6 174.9 124.9 174.1 125 174.1 125 173.7 125.1 173.7 125.1L161.9 129.9 148.6 124.5 175.3 113.2C176.5 112.6 176.7 111.4 176.6 110.6 176.1 109.8 175.2 109.2 174.4 109.3 174.4 109.3 174 109.3 174 109.3L143.5 122.4 116.1 111.2 139.5 93 172.4 97.4C173.6 97.7 174.7 96.7 174.6 95.5 174.8 94.3 173.8 93.2 172.6 93.4L143.9 89.6 155.2 80.8 167.9 82.3C169.1 82.5 170.2 81.6 170.1 80.4 170.3 79.1 169.3 78.1 168.2 78.2L159.5 77 167.9 70.6C168.7 70.1 168.8 68.4 168.3 67.7 167.8 67 167 66.7 166.2 66.8 165.8 66.8 165.4 66.9 165 67.3L156.6 73.7 157.9 65.1C158.1 63.9 157.2 62.8 156 62.9 156 62.9 155.6 63 155.6 63 154.8 63.1 154.1 64 153.8 64.8L152.3 77.6 141 86.4 144.7 57.6C145 56.4 144 55.3 142.8 55.4 142.8 55.4 142.4 55.5 142.4 55.5 141.6 55.6 141 56.5 140.7 57.4L136.3 90.2 112.9 108.4 108.9 79.1 129.1 52.5C129.8 51.6 129.6 50.4 128.7 49.7 127.8 49 126.6 49.2 126 50.1L108.1 73.1 106.2 58.8 113.7 48.9C114.4 48 114.2 46.8 113.3 46.2S111.2 45.6 110.5 46.5L105.4 53.3 104 43C103.8 41.8 102.9 41.1 101.7 41.3 100.5 41.4 99.9 42.3 100 43.5L101.4 53.8 94.7 48.7C94.2 48.4 93.8 48 93 48.1S91.8 48.7 91.5 49.1C90.8 50 91 51.2 91.9 51.9L101.8 59.4 103.7 73.7 80.3 55.9C79.9 55.6 79.4 55.2 78.6 55.3 78.2 55.4 77.5 55.9 77.2 56.3 76.5 57.2 76.6 58.4 77.5 59.1L104.1 79.3 108.1 108.6 80.7 97.4 67.7 66.9C67.2 66.2 66.3 65.5 65.5 65.6 65.5 65.6 65.1 65.7 65.1 65.7 64 66.2 63.7 67.5 63.8 68.3L75.2 95 61.9 89.5 57.1 77.7C56.5 76.9 55.6 76.2 54.9 76.3 54.9 76.3 54.5 76.4 54.5 76.4 53.3 77 53.1 78.2 53.2 79L56.7 87 46.9 83.1C46.5 83.1 46 82.8 45.6 82.9 44.9 83 44.1 83.5 43.8 84.3 43.6 85.6 43.8 86.7 45 87L54.8 90.9 46.8 94.4C45.7 95 45.5 96.2 45.6 97 46.1 98.1 47.4 98.4 48.2 98.3L60 93.4 73.3 98.9 46.6 110.2C45.4 110.7 45.2 112 45.3 112.8 46.6 113.8 47.9 114.4 49.1 113.9Z" fill="rgba(51, 121, 194, 0.58)"></path></g><defs><mask id="SvgjsMask1041"><rect width="1440" height="560" fill="#ffffff"></rect></mask><linearGradient x1="15.28%" y1="-39.29%" x2="84.72%" y2="139.29%" gradientUnits="userSpaceOnUse" id="SvgjsLinearGradient1042"><stop stop-color="#0e2a47" offset="0"></stop><stop stop-color="#00459e" offset="1"></stop></linearGradient><filter id="SvgjsFilter1043"><feGaussianBlur stdDeviation="1"></feGaussianBlur></filter></defs></svg>